<?xml version="1.0" encoding="UTF-8"?>
<svg width="64px" height="64px" viewBox="0 0 64 64" version="1.1" xmlns="http://www.w3.org/2000/svg" xmlns:xlink="http://www.w3.org/1999/xlink">
    <!-- Generator: Sketch 47.1 (45422) - http://www.bohemiancoding.com/sketch -->
    <title>Artboard</title>
    <desc>Created with Sketch.</desc>
    <defs></defs>
    <g id="Page-1" stroke="none" stroke-width="1" fill="none" fill-rule="evenodd">
        <g id="Artboard" fill-rule="nonzero" fill="#000000">
            <g id="saturn-copy" transform="translate(32.000000, 32.000000) rotate(-327.000000) translate(-32.000000, -32.000000) translate(8.000000, 8.000000)">
                <path d="M46.232292,1.21791615 C43.5730198,-1.441338 37.0824323,0.399236796 29.4912905,5.32627695 C27.6684054,4.7537674 25.7328596,4.44378728 23.724507,4.44378728 C13.0928456,4.44378728 4.44278673,13.0936127 4.44278673,23.7248142 C4.44278673,25.7330946 4.75277799,27.6685708 5.32530813,29.4913903 C0.398090793,37.080786 -1.44107699,43.5725357 1.21835032,46.2317899 C3.87925083,48.8925947 10.3741804,47.0579125 17.9697417,42.1264529 C19.7882072,42.6974893 21.7208066,43.0059963 23.7261353,43.0059963 C34.3592699,43.0059963 43.0078556,34.3561709 43.0078556,23.7248918 C43.0078556,21.7197127 42.6993375,19.7885785 42.1298313,17.9687827 C47.0585219,10.3734945 48.8917193,3.87872098 46.232292,1.21791615 Z M5.15030806,42.2970272 C3.72789942,40.8746697 4.53629585,37.5019496 6.95985687,33.2141756 C8.68628646,36.2517171 11.2107226,38.7745893 14.2498465,40.497933 C9.94997772,42.9317964 6.57713629,43.7238817 5.15030806,42.2970272 Z M8.89245624,23.7248918 C8.89245624,15.546782 15.5461032,8.89329679 23.7245846,8.89329679 C30.1232137,8.89329679 35.5695384,12.9719621 37.6475189,18.6598415 C35.3277794,21.9019947 32.3584383,25.4097012 28.8847218,28.8818196 C25.4110053,32.3568069 21.9016995,35.3261187 18.6594296,37.6457748 C12.9712683,35.5694197 8.89245624,30.120267 8.89245624,23.7248918 Z M23.7245846,38.5564867 C23.4798791,38.5564867 23.2410664,38.5312883 22.9993074,38.5208987 C25.7180502,36.3939916 28.496186,33.9602058 31.2267143,31.2281474 C33.9587159,28.4962441 36.3942176,25.7196813 38.5196504,22.9995631 C38.5315135,23.2413135 38.5567904,23.4801176 38.5567904,23.7248142 C38.5567129,31.9030791 31.903066,38.5564867 23.7245846,38.5564867 Z M33.2142096,6.96076692 C37.5022153,4.53876618 40.8750568,3.72892568 42.2973879,5.15128318 C43.7242161,6.57658696 42.9321799,9.95078024 40.498229,14.2519676 C38.7748233,11.2129529 36.253256,8.68713443 33.2142096,6.96076692 Z" id="Shape"></path>
            </g>
        </g>
    </g>
</svg>